{
  "accessors": [
    {
      "bufferView": 2,
      "componentType": 5126,
      "count": 2779,
      "max": [
        0.21453987061977386,
        0.02087271213531494,
        0.4181135594844818
      ],
      "min": [
        -0.21412669122219086,
        -1.4231441020965576,
        -0.40048009157180786
      ],
      "type": "VEC3"
    },
    {
      "bufferView": 2,
      "byteOffset": 33348,
      "componentType": 5126,
      "count": 2779,
      "max": [
        1.0,
        1.0,
        1.0
      ],
      "min": [
        -1.0,
        -0.9949300289154053,
        -1.0
      ],
      "type": "VEC3"
    },
    {
      "bufferView": 3,
      "componentType": 5126,
      "count": 2779,
      "max": [
        1.0,
        1.0,
        1.0,
        1.0
      ],
      "min": [
        -1.0,
        -1.0,
        -1.0,
        1.0
      ],
      "type": "VEC4"
    },
    {
      "bufferView": 1,
      "componentType": 5126,
      "count": 2779,
      "max": [
        0.9921755194664001,
        0.9844662547111511
      ],
      "min": [
        0.007809610106050968,
        0.007808070629835129
      ],
      "type": "VEC2"
    },
    {
      "bufferView": 0,
      "componentType": 5125,
      "count": 7791,
      "type": "SCALAR"
    }
  ],
  "asset": {
    "extras": {
      "author": "Tronin Dmitry (https://sketchfab.com/kosmotron)",
      "license": "CC-BY-4.0 (http://creativecommons.org/licenses/by/4.0/)",
      "source": "https://sketchfab.com/3d-models/sci-fi-terminal-78ac9439b01c45eebf0df2c5d16b04bf",
      "title": "Sci-fi Terminal"
    },
    "generator": "Sketchfab-15.7.0",
    "version": "2.0"
  },
  "bufferViews": [
    {
      "buffer": 0,
      "byteLength": 31164,
      "name": "floatBufferViews",
      "target": 34963
    },
    {
      "buffer": 0,
      "byteLength": 22232,
      "byteOffset": 31164,
      "byteStride": 8,
      "name": "floatBufferViews",
      "target": 34962
    },
    {
      "buffer": 0,
      "byteLength": 66696,
      "byteOffset": 53396,
      "byteStride": 12,
      "name": "floatBufferViews",
      "target": 34962
    },
    {
      "buffer": 0,
      "byteLength": 44464,
      "byteOffset": 120092,
      "byteStride": 16,
      "name": "floatBufferViews",
      "target": 34962
    }
  ],
  "buffers": [
    {
      "byteLength": 164556,
      "uri": "scene.bin"
    }
  ],
  "extensionsUsed": [
    "KHR_materials_emissive_strength"
  ],
  "images": [
    {
      "uri": "textures/uv_checker_material_uv_grid_2048x2048_baseColor.png"
    },
    {
      "uri": "textures/uv_checker_material_uv_grid_2048x2048_metallicRoughness.png"
    },
    {
      "uri": "textures/uv_checker_material_uv_grid_2048x2048_emissive.png"
    },
    {
      "uri": "textures/uv_checker_material_uv_grid_2048x2048_normal.png"
    }
  ],
  "materials": [
    {
      "doubleSided": true,
      "emissiveFactor": [
        1.0,
        1.0,
        1.0
      ],
      "emissiveTexture": {
        "index": 2
      },
      "extensions": {
        "KHR_materials_emissive_strength": {
          "emissiveStrength": 10.0
        }
      },
      "name": "uv_checker_material_uv_grid_2048x2048",
      "normalTexture": {
        "index": 3
      },
      "pbrMetallicRoughness": {
        "baseColorTexture": {
          "index": 0
        },
        "metallicRoughnessTexture": {
          "index": 1
        }
      }
    }
  ],
  "meshes": [
    {
      "name": "Object_0",
      "primitives": [
        {
          "attributes": {
            "NORMAL": 1,
            "POSITION": 0,
            "TANGENT": 2,
            "TEXCOORD_0": 3
          },
          "indices": 4,
          "material": 0,
          "mode": 4
        }
      ]
    }
  ],
  "nodes": [
    {
      "children": [
        1
      ],
      "matrix": [
        0.9426581859588623,
        0.0,
        0.0,
        0.0,
        0.0,
        3.609031599362563e-16,
        -0.9426581859588623,
        0.0,
        0.0,
        0.9426581859588623,
        3.609031599362563e-16,
        0.0,
        0.0,
        0.0,
        0.0,
        1.0
      ],
      "name": "Sketchfab_model"
    },
    {
      "children": [
        2
      ],
      "name": "root"
    },
    {
      "children": [
        3
      ],
      "matrix": [
        1.0,
        0.0,
        0.0,
        0.0,
        0.0,
        2.220446049250313e-16,
        1.0,
        0.0,
        0.0,
        -1.0,
        2.220446049250313e-16,
        0.0,
        0.0,
        0.0,
        0.0,
        1.0
      ],
      "name": "GLTF_SceneRootNode"
    },
    {
      "children": [
        4
      ],
      "matrix": [
        0.9042966192702595,
        0.0,
        -0.426904701750144,
        0.0,
        0.0,
        1.0,
        0.0,
        0.0,
        0.426904701750144,
        0.0,
        0.9042966192702595,
        0.0,
        0.029422935098409653,
        1.422143816947937,
        0.009764082729816437,
        1.0
      ],
      "name": "LP1.008_4"
    },
    {
      "mesh": 0,
      "name": "Object_4"
    }
  ],
  "samplers": [
    {
      "magFilter": 9729,
      "minFilter": 9987,
      "wrapS": 10497,
      "wrapT": 10497
    }
  ],
  "scene": 0,
  "scenes": [
    {
      "name": "Sketchfab_Scene",
      "nodes": [
        0
      ]
    }
  ],
  "textures": [
    {
      "sampler": 0,
      "source": 0
    },
    {
      "sampler": 0,
      "source": 1
    },
    {
      "sampler": 0,
      "source": 2
    },
    {
      "sampler": 0,
      "source": 3
    }
  ]
}
